<svg width="45" height="44" viewBox="0 0 45 44" fill="none" xmlns="http://www.w3.org/2000/svg">
<path d="M2.53408 0L0.00354004 1.07058L14.0509 31.9237L14.8944 31.5668L2.53408 0Z" fill="url(#paint0_linear_623_60569)"/>
<path d="M9.55414 0L6.86743 0.575643L14.8626 33.5198L15.7582 33.328L9.55414 0Z" fill="url(#paint1_linear_623_60569)"/>
<path d="M39.8805 19.2162C40.1952 20.1844 41.0195 21.0686 41.1784 22.0698H1.86652C2.02838 21.0447 2.8407 20.2024 3.16143 19.2192C3.48215 18.236 3.32029 17.067 3.7879 16.1498C4.2555 15.2325 5.30162 14.675 5.90711 13.8417C6.5126 13.0084 6.72542 11.8394 7.45081 11.114C8.1762 10.3886 9.35121 10.1728 10.1785 9.57032C11.0058 8.96783 11.5783 7.91571 12.4866 7.4511C13.3948 6.9865 14.5878 7.13937 15.556 6.82463C16.5242 6.5099 17.4114 5.68259 18.4096 5.52672C19.4077 5.37086 20.4778 5.88342 21.521 5.88342C22.5641 5.88342 23.6072 5.36486 24.6353 5.52672C25.6635 5.68859 26.5028 6.5009 27.4859 6.82163C28.4691 7.14236 29.6381 6.9805 30.5553 7.44811C31.4726 7.91571 32.0301 8.96183 32.8634 9.56732C33.6967 10.1728 34.8657 10.3856 35.5911 11.111C36.3165 11.8364 36.5323 13.0114 37.1348 13.8387C37.7373 14.666 38.7894 15.2385 39.254 16.1468C39.7186 17.055 39.5658 18.248 39.8805 19.2162Z" fill="url(#paint2_linear_623_60569)"/>
<path fill-rule="evenodd" clip-rule="evenodd" d="M19.5441 14.8833C19.2912 14.4452 19.4412 13.8851 19.8793 13.6321L22.2589 12.2583C22.6969 12.0054 23.2571 12.1555 23.51 12.5935C23.7629 13.0316 23.6128 13.5918 23.1748 13.8447L20.7952 15.2185C20.3571 15.4714 19.797 15.3213 19.5441 14.8833Z" fill="#FFF45F"/>
<path fill-rule="evenodd" clip-rule="evenodd" d="M11.1169 10.5328C11.3699 10.0947 11.93 9.94465 12.3681 10.1976L14.7476 11.5714C15.1857 11.8243 15.3358 12.3845 15.0829 12.8225C14.83 13.2606 14.2698 13.4107 13.8317 13.1578L11.4522 11.7839C11.0141 11.531 10.864 10.9709 11.1169 10.5328Z" fill="#FFF45F"/>
<path fill-rule="evenodd" clip-rule="evenodd" d="M26.8383 11.2197C26.3324 11.2197 25.9224 10.8097 25.9224 10.3038L25.9224 7.55615C25.9224 7.05031 26.3324 6.64025 26.8383 6.64025C27.3441 6.64025 27.7542 7.05031 27.7542 7.55615L27.7542 10.3038C27.7542 10.8097 27.3441 11.2197 26.8383 11.2197Z" fill="#FFF45F"/>
<path fill-rule="evenodd" clip-rule="evenodd" d="M38.4432 15.6066C38.1316 16.0051 37.556 16.0756 37.1575 15.764L34.9928 14.0717C34.5943 13.7602 34.5238 13.1846 34.8354 12.7861C35.1469 12.3875 35.7225 12.3171 36.121 12.6286L38.2857 14.3209C38.6842 14.6324 38.7547 15.2081 38.4432 15.6066Z" fill="#FFF45F"/>
<path fill-rule="evenodd" clip-rule="evenodd" d="M4.04619 17.1194C3.68852 16.7618 3.68852 16.1818 4.04619 15.8242L5.9891 13.8813C6.34678 13.5236 6.92669 13.5236 7.28437 13.8813C7.64205 14.2389 7.64205 14.8189 7.28437 15.1765L5.34147 17.1194C4.98379 17.4771 4.40387 17.4771 4.04619 17.1194Z" fill="#FFF45F"/>
<path fill-rule="evenodd" clip-rule="evenodd" d="M24.085 19.0767C23.7273 18.719 23.7273 18.1391 24.085 17.7814L26.0279 15.8385C26.3855 15.4808 26.9654 15.4808 27.3231 15.8385C27.6808 16.1962 27.6808 16.7761 27.3231 17.1337L25.3802 19.0767C25.0225 19.4343 24.4426 19.4343 24.085 19.0767Z" fill="#FFF45F"/>
<path d="M15.9946 18.861H41.0568L37.6729 41.6558C37.473 43.0027 36.3167 44 34.955 44H15.9946V18.861Z" fill="url(#paint3_linear_623_60569)"/>
<path d="M14.2461 18.861H2.58383L0.409465 21.5567C-0.556987 22.7549 0.295873 24.5385 1.83526 24.5385H9.66658L14.2461 18.861Z" fill="url(#paint4_linear_623_60569)"/>
<path fill-rule="evenodd" clip-rule="evenodd" d="M31.053 11.9048C30.2108 12.8481 30.2928 14.2956 31.2361 15.1378C32.1795 15.98 33.6269 15.898 34.4691 14.9546L36.5188 16.7846C34.6659 18.8599 31.4815 19.0403 29.4062 17.1874C27.3309 15.3346 27.1505 12.1502 29.0034 10.0748L31.053 11.9048Z" fill="url(#paint5_radial_623_60569)"/>
<path fill-rule="evenodd" clip-rule="evenodd" d="M14.0985 18.3942C13.542 17.2587 12.1703 16.7894 11.0347 17.3459C9.89922 17.9025 9.4299 19.2742 9.98647 20.4097L7.51922 21.6191C6.29476 19.1209 7.32728 16.1031 9.82542 14.8787C12.3236 13.6542 15.3413 14.6867 16.5658 17.1849L14.0985 18.3942Z" fill="url(#paint6_radial_623_60569)"/>
<path d="M2.75116 18.861H27.8134V44H9.11965C7.76986 44 6.61997 43.0196 6.40653 41.6868L2.75116 18.861Z" fill="url(#paint7_linear_623_60569)"/>
<path d="M27.5 18.861H41.0568L43.4829 21.4328C44.6079 22.5951 43.7843 24.5385 42.1667 24.5385H35.3802C34.1398 24.5385 32.9524 24.0353 32.0897 23.144L27.5 18.861Z" fill="url(#paint8_linear_623_60569)"/>
<path fill-rule="evenodd" clip-rule="evenodd" d="M17.0355 7.33544C17.6692 8.42978 19.0701 8.80317 20.1644 8.16945C21.2587 7.53572 21.6321 6.13485 20.9984 5.04051L23.3762 3.66355C24.7704 6.07109 23.9489 9.15301 21.5414 10.5472C19.1338 11.9414 16.0519 11.1199 14.6577 8.7124L17.0355 7.33544Z" fill="url(#paint9_radial_623_60569)"/>
<defs>
<linearGradient id="paint0_linear_623_60569" x1="1.2688" y1="0.535291" x2="6.27345" y2="11.8732" gradientUnits="userSpaceOnUse">
<stop stop-color="#DF8858"/>
<stop offset="1" stop-color="#723319"/>
</linearGradient>
<linearGradient id="paint1_linear_623_60569" x1="8.21077" y1="0.287821" x2="10.9942" y2="12.3646" gradientUnits="userSpaceOnUse">
<stop stop-color="#DF8858"/>
<stop offset="1" stop-color="#723319"/>
</linearGradient>
<linearGradient id="paint2_linear_623_60569" x1="24.7326" y1="18.7759" x2="22.1095" y2="6.03546" gradientUnits="userSpaceOnUse">
<stop stop-color="#FDB813"/>
<stop offset="1" stop-color="#FFF45F"/>
</linearGradient>
<linearGradient id="paint3_linear_623_60569" x1="28.5257" y1="17.4022" x2="36.9699" y2="32.9724" gradientUnits="userSpaceOnUse">
<stop stop-color="#D56B2A"/>
<stop offset="1" stop-color="#FDB813"/>
</linearGradient>
<linearGradient id="paint4_linear_623_60569" x1="7.20837" y1="17.4022" x2="8.76842" y2="22.4117" gradientUnits="userSpaceOnUse">
<stop stop-color="#723319"/>
<stop offset="1" stop-color="#FFF45F"/>
</linearGradient>
<radialGradient id="paint5_radial_623_60569" cx="0" cy="0" r="1" gradientUnits="userSpaceOnUse" gradientTransform="translate(31.0836 15.3086) rotate(131.758) scale(2.51871 5.03742)">
<stop stop-color="#FD4343"/>
<stop offset="1" stop-color="#C7222B"/>
</radialGradient>
<radialGradient id="paint6_radial_623_60569" cx="0" cy="0" r="1" gradientUnits="userSpaceOnUse" gradientTransform="translate(10.934 17.1403) rotate(-116.112) scale(2.51871 5.03742)">
<stop stop-color="#FD4343"/>
<stop offset="1" stop-color="#C7222B"/>
</radialGradient>
<linearGradient id="paint7_linear_623_60569" x1="16" y1="17.5" x2="22.0621" y2="32.1124" gradientUnits="userSpaceOnUse">
<stop stop-color="#FFF5D8"/>
<stop offset="1" stop-color="#FFF45F"/>
</linearGradient>
<linearGradient id="paint8_linear_623_60569" x1="35.8743" y1="19.234" x2="37.8274" y2="23.9143" gradientUnits="userSpaceOnUse">
<stop stop-color="white"/>
<stop offset="1" stop-color="#FFF45F"/>
</linearGradient>
<radialGradient id="paint9_radial_623_60569" cx="0" cy="0" r="1" gradientUnits="userSpaceOnUse" gradientTransform="translate(20.2792 8.36759) rotate(59.9249) scale(2.51871 5.03742)">
<stop stop-color="#B2EF76"/>
<stop offset="1" stop-color="#038A39"/>
</radialGradient>
</defs>
</svg>
