<svg width="44" height="44" viewBox="0 0 44 44" fill="none" xmlns="http://www.w3.org/2000/svg">
<path d="M12.1027 24.4577C13.706 17.7006 13.3298 14.8142 20.734 15.317C26.0815 15.6801 25.2786 19.6306 27.4808 25.502C29.9031 31.9605 27.354 35.7926 22.112 37.1533C16.8699 38.514 10.1435 32.715 12.1027 24.4577Z" fill="#D56B2A"/>
<path d="M12.6106 22.2313C12.4635 22.9217 12.305 23.6651 12.1182 24.462C10.6439 30.7521 14.5132 35.7042 18.9013 37.1505C24.2578 35.8111 26.7588 32.0277 24.1042 25.6128C23.4642 24.0664 23.0439 22.6544 22.6714 21.4035C21.718 18.2014 21.0789 16.0547 17.8748 15.4083C13.9826 15.7947 13.5058 18.0319 12.6106 22.2313Z" fill="url(#paint0_linear_623_61240)"/>
<path d="M12.6373 6.1072C19.5801 6.26466 22.3245 5.29424 23.3783 12.6403C24.1394 17.9458 20.1084 17.9852 14.826 21.3645C9.01539 25.0816 4.73565 23.3886 2.3107 18.5461C-0.114292 13.7035 4.15287 5.91478 12.6373 6.1072Z" fill="#D56B2A"/>
<path d="M15.0551 6.14148C14.3158 6.14111 13.5115 6.14071 12.6361 6.12324C5.4505 5.97988 1.73531 10.9926 1.76862 15.6559C4.21526 20.4191 8.39057 21.9536 14.0126 18.0854C15.3914 17.1367 16.6845 16.4309 17.8301 15.8055C20.7922 14.1886 22.7682 13.11 22.6903 9.76377C21.5687 6.14473 19.4671 6.14368 15.0551 6.14148Z" fill="url(#paint1_linear_623_61240)"/>
<path fill-rule="evenodd" clip-rule="evenodd" d="M15.7905 8.9778C10.6081 7.86729 6.88958 10.3795 5.74745 11.6644C5.38053 12.0771 4.74846 12.1143 4.33568 11.7474C3.92289 11.3805 3.88571 10.7484 4.25263 10.3356C5.77717 8.62053 10.192 5.73271 16.2096 7.0222C16.7496 7.13792 17.0936 7.6695 16.9778 8.20953C16.8621 8.74956 16.3305 9.09352 15.7905 8.9778Z" fill="white" fill-opacity="0.5"/>
<path d="M2.30195 20.9121C6.17041 15.1446 6.8291 12.3093 13.5882 15.3737C18.4697 17.5869 16.3339 21.0059 16.34 27.2767C16.3467 34.1745 12.6168 36.8709 7.23027 36.3093C1.84367 35.7477 -1.99999 28 2.30195 20.9121Z" fill="#D56B2A"/>
<path d="M3.55752 19.0047C3.17788 19.5997 2.76908 20.2405 2.31499 20.9215C-1.2692 26.2968 0.620472 32.2904 4.22398 35.1821C9.71024 35.8037 13.3781 33.136 13.1385 26.1978C13.0808 24.5251 13.1816 23.0553 13.2709 21.7533C13.4995 18.42 13.6528 16.1854 10.8781 14.4577C7.09717 13.4563 5.86686 15.3848 3.55752 19.0047Z" fill="url(#paint2_linear_623_61240)"/>
<path fill-rule="evenodd" clip-rule="evenodd" d="M7.05472 17.1679C7.51425 17.4743 7.63843 18.0952 7.33207 18.5547C7.19856 18.7549 7.04283 18.9844 6.87147 19.2369C6.37881 19.9628 5.75699 20.879 5.16279 21.8388C4.34493 23.16 3.67755 24.413 3.47017 25.2425C3.33622 25.7783 2.79328 26.1041 2.25749 25.9701C1.72169 25.8362 1.39593 25.2933 1.52988 24.7575C1.82249 23.587 2.65512 22.09 3.46226 20.7861C4.08112 19.7864 4.74219 18.8125 5.23747 18.0828C5.40174 17.8407 5.54776 17.6256 5.66797 17.4453C5.97433 16.9858 6.59519 16.8616 7.05472 17.1679Z" fill="white" fill-opacity="0.5"/>
<path d="M3.05176e-05 29.3617H32.0213V40.3404C32.0213 42.3615 30.3829 44 28.3617 44H6.51692C4.83766 44 3.37389 42.8571 2.96661 41.228L3.05176e-05 29.3617Z" fill="url(#paint3_linear_623_61240)"/>
<path d="M19.7985 29.3617H35.3517V40.3404C35.3517 42.3615 33.7132 44 31.6921 44H19.7985V29.3617Z" fill="#FDB813"/>
<path fill-rule="evenodd" clip-rule="evenodd" d="M24.6214 0L33.0763 3.84314C34.5916 4.53192 35.5645 6.04283 35.5645 7.70735V11.8868H32.5645V7.70735C32.5645 7.21926 32.2793 6.77621 31.8349 6.57424L23.38 2.7311L24.6214 0Z" fill="url(#paint4_linear_623_61240)"/>
<path d="M24.0001 11.8298C24.0001 10.8192 24.8193 10 25.8299 10H39.0001V44H25.8299C24.8193 44 24.0001 43.1808 24.0001 42.1702V11.8298Z" fill="url(#paint5_linear_623_61240)"/>
<path d="M38.5 10H42.1702C43.1808 10 44 10.8192 44 11.8298V42.1702C44 43.1808 43.1808 44 42.1702 44H38.5V10Z" fill="url(#paint6_linear_623_61240)"/>
<path fill-rule="evenodd" clip-rule="evenodd" d="M42.0001 24.4994C41.4478 24.4994 41.0001 24.0517 41.0001 23.4994L41 15.4998C41 14.9476 41.4477 14.4999 42 14.4999C42.5522 14.4999 42.9999 14.9476 42.9999 15.4998L43 23.4994C43 24.0517 42.5523 24.4994 42.0001 24.4994Z" fill="white" fill-opacity="0.6"/>
<path fill-rule="evenodd" clip-rule="evenodd" d="M42 13.4999C41.4477 13.4998 41.0001 13.0521 41.0001 12.4998L41.0001 11.9999C41.0002 11.4476 41.4479 11 42.0002 11C42.5524 11 43.0001 11.4478 43 12L43 12.5C42.9999 13.0522 42.5522 13.4999 42 13.4999Z" fill="white" fill-opacity="0.6"/>
<defs>
<linearGradient id="paint0_linear_623_61240" x1="23.0001" y1="24.5" x2="18.4465" y2="19.3823" gradientUnits="userSpaceOnUse">
<stop stop-color="#D56B2A"/>
<stop offset="1" stop-color="#FDB813"/>
</linearGradient>
<linearGradient id="paint1_linear_623_61240" x1="10.5684" y1="17.0024" x2="10.2109" y2="7.60514" gradientUnits="userSpaceOnUse">
<stop stop-color="#D56B2A"/>
<stop offset="1" stop-color="#FDB813"/>
</linearGradient>
<linearGradient id="paint2_linear_623_61240" x1="7.00009" y1="29" x2="1.55542" y2="17.6529" gradientUnits="userSpaceOnUse">
<stop stop-color="#D56B2A"/>
<stop offset="1" stop-color="#FDB813"/>
</linearGradient>
<linearGradient id="paint3_linear_623_61240" x1="16.0107" y1="27" x2="19.3126" y2="38.5566" gradientUnits="userSpaceOnUse">
<stop stop-color="#FFF5D8"/>
<stop offset="1" stop-color="#FFF45F"/>
</linearGradient>
<linearGradient id="paint4_linear_623_61240" x1="29.4723" y1="0" x2="29.4723" y2="11.8868" gradientUnits="userSpaceOnUse">
<stop stop-color="#FDB813"/>
<stop offset="1" stop-color="#FF8000"/>
</linearGradient>
<linearGradient id="paint5_linear_623_61240" x1="31.6516" y1="5.86485" x2="45.1239" y2="38.4258" gradientUnits="userSpaceOnUse">
<stop stop-color="#BAE5EE"/>
<stop offset="1" stop-color="#6CD2D9"/>
</linearGradient>
<linearGradient id="paint6_linear_623_61240" x1="41.25" y1="18.5" x2="53.9792" y2="30.522" gradientUnits="userSpaceOnUse">
<stop stop-color="#6CD2D9"/>
<stop offset="1" stop-color="#0C90A2"/>
</linearGradient>
</defs>
</svg>
