<svg width="44" height="45" viewBox="0 0 44 45" fill="none" xmlns="http://www.w3.org/2000/svg">
<path d="M40.4236 0L42.9563 1.07148L28.8971 31.9506L28.0529 31.5934L40.4236 0Z" fill="url(#paint0_linear_623_60549)"/>
<path d="M33.3976 0L36.0866 0.576128L28.0847 33.5481L27.1883 33.356L33.3976 0Z" fill="url(#paint1_linear_623_60549)"/>
<path d="M37.292 18.3334C29.0791 18.3334 14.0037 18.3334 3.37531 18.3334C3.37531 10.2332 8.99897 3.66669 15.9361 3.66669C30.4432 3.66669 37.292 18.3334 37.292 18.3334Z" fill="url(#paint2_linear_623_60549)"/>
<path d="M38.2086 22C30.5144 22 15.1659 22 5.20862 22C5.20862 13.3936 9.70953 6.41669 16.2086 6.41669C28.4289 6.41669 38.2086 22 38.2086 22Z" fill="url(#paint3_linear_623_60549)"/>
<path d="M35.0003 22.9167C28.1609 22.9167 15.8928 22.4584 7.04193 22.4584C7.04193 13.8519 12.0836 9.16669 16.6669 9.16669C27.5294 9.16669 35.0003 22.9167 35.0003 22.9167Z" fill="url(#paint4_linear_623_60549)"/>
<path d="M31.792 23.375C26.235 23.375 16.0666 23.375 8.87531 23.375C8.87531 16.9584 12.0836 11.9167 17.3742 11.9167C26.1999 11.9167 31.792 23.375 31.792 23.375Z" fill="#FDB813"/>
<path d="M29.9586 25.2084C25.2566 25.2084 16.7936 25.2084 10.7086 25.2084C10.7086 17.875 13.612 14.6667 17.5836 14.6667C25.0515 14.6667 29.9586 25.2084 29.9586 25.2084Z" fill="url(#paint5_linear_623_60549)"/>
<path d="M15.2919 20.1666C20.9777 20.1666 32.6838 20.1666 40.0419 20.1666C40.0419 14.5978 36.1486 10.0833 31.346 10.0833C21.3026 10.0833 15.2919 20.1666 15.2919 20.1666Z" fill="url(#paint6_linear_623_60549)"/>
<path d="M16.2086 22.9166C21.3381 22.9166 31.5705 22.9166 38.2086 22.9166C38.2086 17.3478 34.6962 12.8333 30.3635 12.8333C22.2167 12.8333 16.2086 22.9166 16.2086 22.9166Z" fill="url(#paint7_linear_623_60549)"/>
<path d="M17.1253 26.5833C21.8273 26.5833 31.207 26.5833 37.2919 26.5833C37.2919 20.5082 34.0723 15.5833 30.1006 15.5833C22.6327 15.5833 17.1253 26.5833 17.1253 26.5833Z" fill="url(#paint8_linear_623_60549)"/>
<path d="M16.0046 17.96H41.088L37.691 41.6768C37.497 43.0311 36.337 44.0369 34.9688 44.0369H16.0046V17.96Z" fill="url(#paint9_linear_623_60549)"/>
<path d="M14.4221 17.96H2.75L1.27376 21.0103C0.684562 22.2278 1.57146 23.6423 2.92399 23.6423H11.6721L14.4221 17.96Z" fill="url(#paint10_linear_623_60549)"/>
<path d="M2.75 17.96H27.8334V44.0369H9.13693C7.78028 44.0369 6.62634 43.0475 6.41918 41.7068L2.75 17.96Z" fill="url(#paint11_linear_623_60549)"/>
<path d="M27.9642 17.96H41.088L42.5642 21.0103C43.1534 22.2278 42.2665 23.6423 40.914 23.6423H33.5879C31.8305 23.6423 30.2279 22.6375 29.4623 21.0556L27.9642 17.96Z" fill="url(#paint12_linear_623_60549)"/>
<path fill-rule="evenodd" clip-rule="evenodd" d="M20.1485 5.73596C20.7828 6.83121 22.1848 7.20492 23.2801 6.57066C24.3753 5.9364 24.749 4.53435 24.1148 3.43909L26.4945 2.06097C27.8899 4.47054 27.0678 7.55505 24.6582 8.95043C22.2486 10.3458 19.1641 9.52364 17.7687 7.11407L20.1485 5.73596Z" fill="url(#paint13_radial_623_60549)"/>
<path fill-rule="evenodd" clip-rule="evenodd" d="M10.6121 14.2994C11.1428 13.1504 10.6416 11.7887 9.49261 11.2579C8.34361 10.7272 6.98192 11.2284 6.4512 12.3774L3.95465 11.2243C5.12225 8.69646 8.11797 7.5938 10.6458 8.7614C13.1736 9.92899 14.2762 12.9247 13.1086 15.4525L10.6121 14.2994Z" fill="url(#paint14_radial_623_60549)"/>
<path fill-rule="evenodd" clip-rule="evenodd" d="M32.6452 11.5302C31.8023 12.4743 31.8843 13.923 32.8285 14.7659C33.7726 15.6088 35.2213 15.5268 36.0642 14.5827L38.1156 16.4141C36.2612 18.4912 33.0741 18.6717 30.997 16.8173C28.9199 14.9629 28.7394 11.7758 30.5938 9.69873L32.6452 11.5302Z" fill="url(#paint15_radial_623_60549)"/>
<defs>
<linearGradient id="paint0_linear_623_60549" x1="38.5" y1="5.5" x2="41.8" y2="9.9" gradientUnits="userSpaceOnUse">
<stop stop-color="#D56B2A"/>
<stop offset="1" stop-color="#723319"/>
</linearGradient>
<linearGradient id="paint1_linear_623_60549" x1="32.0833" y1="0.458333" x2="37.3415" y2="5.3638" gradientUnits="userSpaceOnUse">
<stop offset="0.531688" stop-color="#D56B2A"/>
<stop offset="1" stop-color="#723319"/>
</linearGradient>
<linearGradient id="paint2_linear_623_60549" x1="20.3336" y1="3.66669" x2="23.3821" y2="13.7445" gradientUnits="userSpaceOnUse">
<stop stop-color="#FFF45F"/>
<stop offset="1" stop-color="#FDB813"/>
</linearGradient>
<linearGradient id="paint3_linear_623_60549" x1="21.7086" y1="6.41669" x2="25.1953" y2="16.6919" gradientUnits="userSpaceOnUse">
<stop stop-color="#FDB813"/>
<stop offset="1" stop-color="#D56B2A"/>
</linearGradient>
<linearGradient id="paint4_linear_623_60549" x1="21.0211" y1="9.16669" x2="23.432" y2="15.0545" gradientUnits="userSpaceOnUse">
<stop stop-color="#FFF45F"/>
<stop offset="1" stop-color="#FDB813"/>
</linearGradient>
<linearGradient id="paint5_linear_623_60549" x1="20.3336" y1="14.6667" x2="21.0593" y2="17.7015" gradientUnits="userSpaceOnUse">
<stop stop-color="#FFF45F"/>
<stop offset="1" stop-color="#FDB813"/>
</linearGradient>
<linearGradient id="paint6_linear_623_60549" x1="27.6669" y1="11.9166" x2="29.3597" y2="19.8033" gradientUnits="userSpaceOnUse">
<stop stop-color="#FDB813"/>
<stop offset="1" stop-color="#D56B2A"/>
</linearGradient>
<linearGradient id="paint7_linear_623_60549" x1="27.2086" y1="12.8333" x2="28.9863" y2="17.6814" gradientUnits="userSpaceOnUse">
<stop stop-color="#FFF45F"/>
<stop offset="1" stop-color="#FDB813"/>
</linearGradient>
<linearGradient id="paint8_linear_623_60549" x1="27.2086" y1="15.5833" x2="28.0951" y2="18.5245" gradientUnits="userSpaceOnUse">
<stop stop-color="#FDB813"/>
<stop offset="1" stop-color="#D56B2A"/>
</linearGradient>
<linearGradient id="paint9_linear_623_60549" x1="28.5463" y1="16.5" x2="36.9976" y2="32.0833" gradientUnits="userSpaceOnUse">
<stop stop-color="#D56B2A"/>
<stop offset="1" stop-color="#FDB813"/>
</linearGradient>
<linearGradient id="paint10_linear_623_60549" x1="7.21103" y1="16.5" x2="8.7724" y2="21.5137" gradientUnits="userSpaceOnUse">
<stop stop-color="#723319"/>
<stop offset="1" stop-color="#FFF45F"/>
</linearGradient>
<linearGradient id="paint11_linear_623_60549" x1="15.5833" y1="12.375" x2="23.5732" y2="30.3689" gradientUnits="userSpaceOnUse">
<stop stop-color="#FFF5D8"/>
<stop offset="1" stop-color="#FFF45F"/>
</linearGradient>
<linearGradient id="paint12_linear_623_60549" x1="35.9011" y1="18.3333" x2="37.8559" y2="23.0175" gradientUnits="userSpaceOnUse">
<stop stop-color="white"/>
<stop offset="1" stop-color="#FFF45F"/>
</linearGradient>
<radialGradient id="paint13_radial_623_60549" cx="0" cy="0" r="1" gradientUnits="userSpaceOnUse" gradientTransform="translate(23.3949 6.76898) rotate(59.9249) scale(2.52083 5.04167)">
<stop stop-color="#B2EF76"/>
<stop offset="1" stop-color="#038A39"/>
</radialGradient>
<radialGradient id="paint14_radial_623_60549" cx="0" cy="0" r="1" gradientUnits="userSpaceOnUse" gradientTransform="translate(9.58871 11.0499) rotate(-65.2077) scale(2.52083 5.04167)">
<stop stop-color="#FD4343"/>
<stop offset="1" stop-color="#C7222B"/>
</radialGradient>
<radialGradient id="paint15_radial_623_60549" cx="0" cy="0" r="1" gradientUnits="userSpaceOnUse" gradientTransform="translate(32.6758 14.9369) rotate(131.758) scale(2.52083 5.04167)">
<stop stop-color="#FD4343"/>
<stop offset="1" stop-color="#C7222B"/>
</radialGradient>
</defs>
</svg>
