<svg width="381" height="64" viewBox="0 0 381 64" fill="none" xmlns="http://www.w3.org/2000/svg">
<path opacity="0.170503" d="M64.756 58.8856C64.756 58.8856 64.756 56.7963 62.2944 54.3963C60.073 52.2304 57.9983 52.1279 57.9983 52.1279C57.9983 52.1279 60.0841 52.2191 62.2738 50.0118C64.5066 47.7609 64.756 45.3702 64.756 45.3702C64.756 45.3702 64.9247 47.8469 67.0246 49.8593C69.3917 52.1279 71.5137 52.1279 71.5137 52.1279C71.5137 52.1279 68.8077 52.9105 67.1113 54.7011C65.0422 56.885 64.756 58.8856 64.756 58.8856Z" fill="#F58911"/>
<path opacity="0.170503" d="M100.578 13.5154C100.578 13.5154 100.578 11.4262 98.1165 9.02613C95.895 6.86023 93.8203 6.75769 93.8203 6.75769C93.8203 6.75769 95.9061 6.84891 98.0959 4.64162C100.329 2.39075 100.578 0 100.578 0C100.578 0 100.747 2.47674 102.847 4.48908C105.214 6.75769 107.336 6.75769 107.336 6.75769C107.336 6.75769 104.63 7.54036 102.933 9.33088C100.864 11.5149 100.578 13.5154 100.578 13.5154Z" fill="#F58911"/>
<path opacity="0.170503" d="M373.842 58.1683C373.842 58.1683 373.842 56.0791 371.38 53.6791C369.159 51.5132 367.084 51.4106 367.084 51.4106C367.084 51.4106 369.17 51.5019 371.36 49.2946C373.592 47.0437 373.842 44.653 373.842 44.653C373.842 44.653 374.01 47.1297 376.11 49.142C378.477 51.4106 380.599 51.4106 380.599 51.4106C380.599 51.4106 377.893 52.1933 376.197 53.9838C374.128 56.1678 373.842 58.1683 373.842 58.1683Z" fill="#F58911"/>
<path opacity="0.170503" d="M304.077 31.4452C304.077 31.4452 304.077 27.1362 299 22.1861C294.418 17.7189 290.139 17.5074 290.139 17.5074C290.139 17.5074 294.441 17.6956 298.957 13.1431C303.562 8.50063 304.077 3.5697 304.077 3.5697C304.077 3.5697 304.425 8.67797 308.756 12.8284C313.638 17.5074 318.015 17.5074 318.015 17.5074C318.015 17.5074 312.433 19.1217 308.935 22.8147C304.667 27.3191 304.077 31.4452 304.077 31.4452Z" fill="#F58911"/>
<path opacity="0.170503" d="M14.3601 63.3046C14.3601 63.3046 14.3601 58.8651 9.12933 53.765C4.40868 49.1625 0 48.9446 0 48.9446C0 48.9446 4.43238 49.1384 9.08553 44.4479C13.8302 39.6648 14.3601 34.5845 14.3601 34.5845C14.3601 34.5845 14.7187 39.8475 19.1809 44.1238C24.211 48.9446 28.7202 48.9446 28.7202 48.9446C28.7202 48.9446 22.97 50.6077 19.365 54.4126C14.9682 59.0536 14.3601 63.3046 14.3601 63.3046Z" fill="#F58911"/>
<path opacity="0.25" d="M22.7192 25.7798C22.7192 25.7798 22.7192 23.0821 19.5407 19.9829C16.6721 17.1862 13.9932 17.0538 13.9932 17.0538C13.9932 17.0538 16.6865 17.1716 19.5141 14.3214C22.3972 11.4149 22.7192 8.32776 22.7192 8.32776C22.7192 8.32776 22.9371 11.5259 25.6486 14.1244C28.7051 17.0538 31.4452 17.0538 31.4452 17.0538C31.4452 17.0538 27.951 18.0644 25.7605 20.3765C23.0887 23.1966 22.7192 25.7798 22.7192 25.7798Z" fill="#F58911" fill-opacity="0.25"/>
<path opacity="0.565127" d="M340.879 57.2809C340.879 57.2809 340.879 55.59 338.887 53.6476C337.089 51.8946 335.41 51.8116 335.41 51.8116C335.41 51.8116 337.098 51.8854 338.871 50.099C340.678 48.2772 340.879 46.3423 340.879 46.3423C340.879 46.3423 341.016 48.3468 342.716 49.9755C344.631 51.8116 346.349 51.8116 346.349 51.8116C346.349 51.8116 344.159 52.4451 342.786 53.8942C341.111 55.6618 340.879 57.2809 340.879 57.2809Z" fill="#F58911" fill-opacity="0.4"/>
<path d="M356.783 49.5036C356.783 49.5036 356.783 45.4173 351.968 40.723C347.623 36.4867 343.565 36.2861 343.565 36.2861C343.565 36.2861 347.645 36.4646 351.928 32.1473C356.295 27.7447 356.783 23.0686 356.783 23.0686C356.783 23.0686 357.113 27.9129 361.22 31.8489C365.85 36.2861 370 36.2861 370 36.2861C370 36.2861 364.708 37.817 361.389 41.3191C357.342 45.5908 356.783 49.5036 356.783 49.5036Z" fill="#FAA61A" fill-opacity="0.2"/>
<path d="M329.141 52.5484H273.63C273.197 52.5484 272.846 52.1773 272.846 51.7181V8.8303C272.846 8.37087 273.197 8 273.63 8H329.163C329.733 8 330.111 8.61996 329.876 9.16796L320.832 30.3738C320.739 30.5952 320.739 30.8499 320.838 31.0657L329.849 51.3584C330.095 51.9172 329.717 52.5484 329.141 52.5484Z" fill="#FCCF42"/>
<path d="M312.254 26.1209H302.657V24.095H302.652L302.646 16.4341C302.646 16.2459 302.548 16.0853 302.394 15.9691C302.274 15.8805 302.12 15.8196 301.95 15.8196H294.852C294.469 15.8196 294.156 16.0964 294.156 16.4396V26.1264H292.15V26.132L284.564 26.1375C284.378 26.1375 284.219 26.2371 284.104 26.3921C284.016 26.5139 283.956 26.6689 283.956 26.8405V34.0087C283.956 34.3962 284.23 34.7117 284.57 34.7117H294.161V36.7376H294.167L294.172 44.3985C294.172 44.5867 294.271 44.7473 294.425 44.8635C294.545 44.9521 294.699 45.0129 294.869 45.0129H301.967C302.35 45.0129 302.663 44.7362 302.663 44.393V34.7006H304.669V34.6951L312.254 34.6896C312.441 34.6896 312.6 34.5899 312.715 34.4349C312.803 34.3132 312.863 34.1582 312.863 33.9866V26.8239C312.868 26.4364 312.589 26.1209 312.254 26.1209Z" fill="black"/>
<path d="M103.382 33.3597C104.152 32.8046 104.864 32.1645 105.502 31.4331C107.039 29.6697 108.874 26.5708 108.874 21.8064C108.874 17.1564 107.045 14.0803 105.495 12.3071C103.641 10.1879 101.181 8.79678 98.4103 8.24818C97.7888 8.13062 97.1608 8.03265 96.5137 8H91.8012H83.8907C83.4796 8 83.1398 8.33961 83.1398 8.75432V51.7931C83.1398 52.2079 83.4764 52.551 83.8907 52.551H91.3706C91.5357 52.551 91.6778 52.4858 91.8012 52.3975C91.9888 52.2603 92.1182 52.048 92.1182 51.7965V35.7533H94.7916L98.4133 48.1882L99.5237 52.0054C99.6173 52.3255 99.9087 52.551 100.239 52.551H108.182C108.418 52.551 108.641 52.4367 108.784 52.2441C108.926 52.0514 108.968 51.8029 108.9 51.5744L103.382 33.3597ZM98.763 25.4377C98.6562 25.5617 98.5269 25.6564 98.4103 25.7609C97.7207 26.3716 96.8469 26.685 95.7433 26.685H92.1182V17.0617H95.7433C96.8533 17.0617 97.7207 17.3785 98.4103 17.9858C98.5299 18.0936 98.6529 18.185 98.763 18.3091C99.5237 19.1777 99.8926 20.3206 99.8926 21.8064C99.8926 23.3575 99.5139 24.5821 98.763 25.4377Z" fill="black"/>
<path d="M67.6687 8.51595C66.4193 8.17307 65.0762 8 63.6617 8C59.8716 8 56.5832 9.24088 54.2625 11.7096C51.971 14.1456 51 17.7409 51 21.7999V40.1813C51 44.2402 51.971 47.8356 54.2625 50.2717C56.5864 52.7403 59.8716 53.9812 63.6649 53.9812C65.0794 53.9812 66.4193 53.8081 67.6687 53.4654C69.7725 52.8839 71.6077 51.8225 73.0642 50.2717C75.3525 47.8386 76.3235 44.2402 76.3235 40.1813V30.0681C76.3235 29.637 75.9804 29.2909 75.5531 29.2909H67.6687H64.4547C64.0307 29.2909 63.6585 29.6403 63.6585 30.0681V37.5722C63.6585 38.0032 64.0307 38.3493 64.4547 38.3493H67.3547V40.0474C67.3547 41.5887 67.0019 42.8197 66.306 43.6982C65.6555 44.5178 64.7946 44.9129 63.6682 44.9129C62.5418 44.9129 61.6809 44.5178 61.0304 43.6982C60.3345 42.8197 59.9526 41.592 59.9526 40.0474V21.8881C59.9526 20.3468 60.3345 19.1157 61.0304 18.2373C61.6809 17.4176 62.5418 17.0356 63.6682 17.0356C64.7946 17.0356 65.6555 17.4176 66.306 18.2373C67.0019 19.1157 67.3547 20.3435 67.3547 21.8881V23.5926C67.3547 23.8147 67.4842 24.0008 67.6719 24.1216C67.7949 24.2 67.9373 24.2555 68.1024 24.2555H75.5823C75.9933 24.2555 76.3299 23.9584 76.3299 23.5894V21.7999C76.3299 17.7409 75.3589 14.1456 73.0674 11.7096C71.6077 10.1617 69.7693 9.0972 67.6687 8.51595Z" fill="black"/>
<path d="M138.46 8H130.809C130.718 8 130.631 8.01959 130.55 8.04572C130.265 8.14042 130.061 8.37879 130.061 8.66289L130.058 39.378C130.058 40.8376 129.721 41.9969 129.058 42.8328C128.44 43.6068 127.618 43.9823 126.546 43.9823C125.669 43.9823 124.967 43.7178 124.404 43.2051C124.278 43.0875 124.148 42.9765 124.035 42.8328C123.371 42.0001 123.034 40.8376 123.034 39.378L123.015 8.66616C123.015 8.30042 122.682 8 122.267 8H114.632C114.218 8 113.882 8.29716 113.882 8.66616V39.4629C113.882 43.5218 114.856 47.117 117.144 49.5531C119.015 51.542 121.52 52.7207 124.4 53.1094C125.096 53.204 125.805 53.2629 126.543 53.2629H126.546C127.961 53.2629 129.301 53.0898 130.55 52.7467C132.654 52.1657 134.489 51.1043 135.946 49.5531C138.234 47.1204 139.208 43.5218 139.208 39.4629V8.66616C139.208 8.29716 138.872 8 138.46 8Z" fill="black"/>
<path d="M167.512 29.5391C168.91 28.2884 171.13 25.0882 171.13 21.1925C171.13 16.6503 169.428 13.7342 167.994 12.0851C166.249 10.0801 163.926 8.77065 161.294 8.25144C160.469 8.08817 159.614 8.00327 158.737 8.00327L154.685 8H146.768C146.354 8 146.021 8.33961 146.021 8.75759V51.7901C146.021 52.2079 146.354 52.5476 146.768 52.5476H151.338H154.679H159.252C159.945 52.5476 160.621 52.479 161.291 52.381C164.401 51.9206 167.188 50.4218 169.111 48.0117C170.46 46.3172 171.907 43.3586 171.907 38.8588C171.907 33.6699 168.745 30.5155 167.512 29.5391ZM154.944 17.0682H158.734C159.844 17.0682 160.666 17.398 161.255 18.0707C161.268 18.087 161.278 18.1132 161.297 18.1295C161.867 18.8218 162.159 19.8439 162.159 21.1958C162.159 22.564 161.861 23.6188 161.297 24.3535C161.271 24.3861 161.252 24.4319 161.226 24.4645C160.621 25.1797 159.808 25.5291 158.741 25.5291H154.95L154.944 17.0682ZM161.961 42.33C161.767 42.5748 161.537 42.761 161.291 42.9308C160.747 43.2965 160.08 43.4892 159.252 43.4892H154.944V34.3001H159.252C160.061 34.3001 160.731 34.5091 161.291 34.9173C161.517 35.0806 161.725 35.2667 161.912 35.4986C162.598 36.3411 162.932 37.4448 162.932 38.862C162.935 40.3543 162.605 41.5234 161.961 42.33Z" fill="black"/>
<path d="M262.533 29.5391C263.931 28.2884 266.151 25.0882 266.151 21.1925C266.151 16.6503 264.449 13.7342 263.015 12.0851C260.724 9.45314 257.435 8.00327 253.758 8.00327L249.706 8H246.774H241.786C241.372 8 241.038 8.33961 241.038 8.75759V51.7901C241.038 52.2079 241.372 52.5476 241.786 52.5476H246.356H249.696H254.27C258.193 52.5476 261.795 50.9376 264.125 48.0117C265.475 46.3172 266.922 43.3586 266.922 38.8588C266.928 33.6699 263.766 30.5155 262.533 29.5391ZM249.962 17.0682H253.752C254.862 17.0682 255.684 17.398 256.273 18.0707C256.872 18.7597 257.176 19.8112 257.176 21.1958C257.176 22.6293 256.859 23.7298 256.241 24.4645C255.639 25.1797 254.823 25.5291 253.755 25.5291H249.965V17.0682H249.962ZM256.982 42.33C256.361 43.1071 255.474 43.4859 254.27 43.4859H249.962V34.2969H254.27C255.406 34.2969 256.273 34.6887 256.93 35.4921C257.617 36.3345 257.95 37.4383 257.95 38.8555C257.953 40.3543 257.626 41.5234 256.982 42.33Z" fill="black"/>
<path d="M201.545 8H194.066C193.79 8 193.557 8.15674 193.428 8.38206C193.363 8.49309 193.315 8.61718 193.315 8.75759V25.4605H187.375H185.731V8.75759C185.731 8.33961 185.398 8 184.983 8H177.503C177.09 8 176.756 8.33961 176.756 8.75759V51.7901C176.756 52.2049 177.09 52.5442 177.503 52.5442H184.983C185.398 52.5442 185.731 52.2049 185.731 51.7901V34.4994H187.375H193.315V51.7901C193.315 51.9274 193.363 52.0514 193.428 52.1623C193.557 52.3877 193.79 52.5442 194.066 52.5442H201.545C201.96 52.5442 202.296 52.2049 202.296 51.7901V8.75759C202.293 8.33961 201.96 8 201.545 8Z" fill="black"/>
<path d="M233.481 8H229.804H225.826C225.736 8 225.648 8.01959 225.567 8.04572C225.283 8.14042 225.079 8.37879 225.079 8.66289L225.076 39.378C225.076 40.8376 224.739 41.9969 224.075 42.8328C223.457 43.6068 222.635 43.9823 221.561 43.9823C220.486 43.9823 219.667 43.6068 219.049 42.8328C218.385 42.0001 218.049 40.8376 218.049 39.378L218.036 8.66289C218.036 8.46043 217.929 8.2841 217.764 8.16327C217.634 8.06531 217.473 8 217.288 8H213.139H209.65C209.239 8 208.899 8.29716 208.899 8.66616V39.4629C208.899 43.5218 209.873 47.117 212.161 49.5531C213.666 51.1533 215.576 52.2275 217.764 52.7927C218.958 53.1026 220.227 53.2629 221.564 53.2629C222.978 53.2629 224.318 53.0898 225.567 52.7467C227.671 52.1657 229.506 51.1043 230.963 49.5531C233.251 47.1204 234.225 43.5218 234.225 39.4629V8.66616C234.229 8.29716 233.892 8 233.481 8Z" fill="black"/>
</svg>
