<svg width="100" height="100" xmlns="http://www.w3.org/2000/svg"><defs><linearGradient x1="123.281%" y1="50%" x2="9.857%" y2="50%" id="linearGradient-1"><stop stop-color="#FFF" offset="0%"/><stop stop-color="#A9DADD" offset="100%"/></linearGradient><linearGradient x1="114.924%" y1="119.985%" x2="27.827%" y2="22.151%" id="linearGradient-2"><stop stop-color="#FFF" offset="0%"/><stop stop-color="#A9DADD" offset="100%"/></linearGradient><linearGradient x1="24.554%" y1="100%" x2="104.906%" y2="0%" id="linearGradient-3"><stop stop-color="#CDE9EA" offset="0%"/><stop stop-color="#75B2B5" offset="100%"/></linearGradient><linearGradient x1="147.296%" y1="-12.791%" x2="-19.149%" y2="114.464%" id="linearGradient-4"><stop stop-color="#FFF" offset="0%"/><stop stop-color="#75B2B5" offset="100%"/></linearGradient><linearGradient x1="-47.113%" y1="50%" x2="98.626%" y2=".134%" id="linearGradient-5"><stop stop-color="#FFF" offset="0%"/><stop stop-color="#A9DADD" offset="100%"/></linearGradient><linearGradient x1="31.659%" y1="-7.945%" x2="58.721%" y2="85.288%" id="linearGradient-6"><stop stop-color="#8ED3D2" offset="0%"/><stop stop-color="#CDE9EB" offset="100%"/></linearGradient><linearGradient x1="44.124%" y1="77.932%" x2="87.248%" y2="-31.658%" id="linearGradient-7"><stop stop-color="#CDE9EA" offset="0%"/><stop stop-color="#75B2B5" offset="100%"/></linearGradient><linearGradient x1="31.837%" y1="0%" x2="56.382%" y2="50%" id="linearGradient-8"><stop stop-color="#FFF" offset="0%"/><stop stop-color="#A9DADD" offset="100%"/></linearGradient><linearGradient x1="13.184%" y1="83.87%" x2="57.888%" y2="30.018%" id="linearGradient-9"><stop stop-color="#E3F3F7" offset="0%"/><stop stop-color="#97CCCF" offset="100%"/></linearGradient><radialGradient cx="50%" cy="50.165%" fx="50%" fy="50.165%" r="49.835%" id="radialGradient-10"><stop stop-color="#FBCB48" stop-opacity=".541" offset="0%"/><stop stop-color="#FEDF93" stop-opacity="0" offset="100%"/></radialGradient></defs><g id="illustration_3_gh-copy" stroke="none" stroke-width="1" fill="none" fill-rule="evenodd"><path id="bounding-box" fill-opacity="0" fill="#FFF" d="M0 0h100v100H0z"/><g id="Group" transform="translate(7 13)"><g id="SL_diamond_1" transform="translate(0 4.826)" fill-rule="nonzero"><path id="Path" fill="url('#linearGradient-1')" d="m42.07 10.126-27.28-4.92L42.07.283l27.274 4.921z"/><path id="Path" fill="url('#linearGradient-2')" d="M14.79 5.205 0 25.427l27.71 7.302z"/><path id="Path" fill="url('#linearGradient-3')" d="M14.79 5.205 27.71 32.73l14.36-22.603z"/><path id="Path" fill="url('#linearGradient-4')" d="m69.344 5.205 14.794 20.222-27.714 7.302z"/><path id="Path" fill="url('#linearGradient-5')" d="M69.344 5.205 56.424 32.73 42.07 10.126z"/><path id="Path" fill="url('#linearGradient-6')" d="M42.07 10.126 27.71 32.73h28.714z"/><path id="Path" fill="url('#linearGradient-7')" d="M27.71 32.729h28.714l-14.452 40.31z"/><path id="Path" fill="url('#linearGradient-8')" d="m84.138 25.427-27.714 7.302-14.452 40.31z"/><path id="Path" fill="url('#linearGradient-9')" d="m0 25.427 27.71 7.302 14.453 40.31z"/></g><path d="M9.918 48.688c2.856 1.754 5.565 2.631 8.128 2.631 2.563 0 5.126-.877 7.69-2.632-1.755 2.417-2.632 4.98-2.632 7.69s.877 5.419 2.631 8.128c-2.855-1.754-5.564-2.632-8.128-2.632-2.563 0-5.126.878-7.689 2.632 1.754-2.856 2.632-5.565 2.632-8.128 0-2.563-.878-5.126-2.632-7.69Z" id="Rectangle" fill="#F9D35F" transform="rotate(45 17.827 56.596)"/><path d="M76.126 2.85c1.852 1.138 3.61 1.707 5.272 1.707 1.662 0 3.325-.569 4.987-1.707-1.138 1.568-1.707 3.23-1.707 4.988 0 1.757.57 3.515 1.707 5.272-1.852-1.138-3.61-1.707-5.272-1.707-1.662 0-3.325.569-4.987 1.707 1.138-1.852 1.707-3.61 1.707-5.272 0-1.663-.57-3.325-1.707-4.988Z" id="Rectangle" fill="#F9D35F" transform="rotate(45 81.255 7.98)"/></g><circle id="Oval" fill="url('#radialGradient-10')" cx="88" cy="21" r="12"/><circle id="Oval" fill="url('#radialGradient-10')" cx="27" cy="68" r="18"/></g></svg>