<svg width="32" height="17" xmlns="http://www.w3.org/2000/svg"><g id="Deliverables/Specs" stroke="none" stroke-width="1" fill="none" fill-rule="evenodd"><g id="Assets" transform="translate(-77 -404)" fill-rule="nonzero"><g id="GH+-Flag" transform="translate(77 404)"><path d="M31.626 17H.31a.313.313 0 0 1-.31-.317V.317C0 .143.137 0 .31 0h31.325c.225 0 .374.237.28.445l-3.57 8.094a.323.323 0 0 0 .004.265l3.558 7.745a.317.317 0 0 1-.281.451Z" id="Path" fill="#FCCF42"/><path d="M24.85 7.582h-2.373v-.484h-.002v-1.83a.144.144 0 0 0-.061-.112.197.197 0 0 0-.11-.037h-1.755c-.094 0-.171.066-.171.149v2.317h-.497v.002h-1.874a.15.15 0 0 0-.115.06.187.187 0 0 0-.037.107v1.714c0 .091.067.167.152.167h2.37v.484h.003v1.83c0 .046.026.085.06.112.031.02.069.037.11.037h1.756c.094 0 .171-.066.171-.149V9.635h.496v-.003h1.875a.15.15 0 0 0 .115-.06.186.186 0 0 0 .037-.107V7.752c0-.094-.068-.17-.15-.17ZM7.771 3.522a3.554 3.554 0 0 0-.924-.117c-.876 0-1.636.277-2.172.83-.53.544-.754 1.348-.754 2.255v4.111c0 .907.225 1.712.754 2.255.536.553 1.296.83 2.172.83.327 0 .636-.039.924-.117.487-.13.91-.367 1.248-.713.529-.543.753-1.348.753-2.255V8.34a.176.176 0 0 0-.178-.174H7.03c-.098 0-.185.078-.185.174v1.677c0 .096.087.174.185.174h.67v.38c0 .344-.082.618-.244.815-.15.183-.349.272-.608.272-.26 0-.46-.09-.609-.272-.161-.197-.248-.47-.248-.816V6.511c0-.345.089-.62.248-.816.15-.183.349-.27.609-.27s.458.085.608.27c.162.196.244.47.244.816v.381c0 .05.03.092.072.12a.18.18 0 0 0 .1.029H9.6c.096 0 .173-.066.173-.149v-.4c0-.907-.224-1.711-.753-2.255a2.683 2.683 0 0 0-1.248-.715ZM16.689 3.565H14.96a.172.172 0 0 0-.147.085.171.171 0 0 0-.026.084v3.737h-1.751V3.734a.17.17 0 0 0-.173-.169h-1.727a.17.17 0 0 0-.173.17v9.624c0 .094.077.17.173.17h1.727a.17.17 0 0 0 .174-.17V9.493h1.75v3.866c0 .03.012.06.026.083.03.05.084.084.147.084h1.728a.17.17 0 0 0 .173-.169V3.734a.172.172 0 0 0-.173-.169Z" id="Path" fill="#121212"/></g></g></g></svg>