<svg width="100" height="100" xmlns="http://www.w3.org/2000/svg"><defs><linearGradient x1="49.991%" y1="-.811%" x2="49.991%" y2="100.297%" id="linearGradient-1"><stop stop-color="#612889" offset="0%"/><stop stop-color="#5F2887" offset="42%"/><stop stop-color="#572882" offset="66%"/><stop stop-color="#492878" offset="84%"/><stop stop-color="#36286B" offset="100%"/></linearGradient><linearGradient x1="49.991%" y1="97.669%" x2="49.991%" y2="6.294%" id="linearGradient-2"><stop stop-color="#612889" offset="0%"/><stop stop-color="#5A2884" offset="29%"/><stop stop-color="#472877" offset="71%"/><stop stop-color="#36286B" offset="100%"/></linearGradient><linearGradient x1="49.991%" y1="-1.178%" x2="49.991%" y2="92.929%" id="linearGradient-3"><stop stop-color="#FDB813" offset="1%"/><stop stop-color="#FDB914" offset="1%"/><stop stop-color="#FED93D" offset="12%"/><stop stop-color="#FFED56" offset="21%"/><stop stop-color="#FFF45F" offset="26%"/><stop stop-color="#FCD446" offset="45%"/><stop stop-color="#F89C1B" offset="75%"/><stop stop-color="#F9A11A" offset="84%"/><stop stop-color="#FBAF16" offset="95%"/><stop stop-color="#FDB813" offset="100%"/></linearGradient><linearGradient x1="50%" y1="91.077%" x2="50%" y2="48.822%" id="linearGradient-4"><stop stop-color="#612889" offset="0%"/><stop stop-color="#3F2871" offset="80%"/><stop stop-color="#36286B" offset="100%"/></linearGradient><linearGradient x1="50%" y1=".673%" x2="50%" y2="96.97%" id="linearGradient-5"><stop stop-color="#F0717F" offset="0%"/><stop stop-color="#F0646E" offset="18%"/><stop stop-color="#EF5559" offset="46%"/><stop stop-color="#EF4B4C" offset="74%"/><stop stop-color="#EF4848" offset="100%"/></linearGradient><linearGradient x1="50%" y1="-12.615%" x2="50%" y2="84.633%" id="linearGradient-6"><stop stop-color="#FFF45F" offset="0%"/><stop stop-color="#FCCD41" offset="47%"/><stop stop-color="#F89C1B" offset="100%"/></linearGradient><linearGradient x1="50%" y1="70.253%" x2="50%" y2="26.297%" id="linearGradient-7"><stop stop-color="#F7ACB6" offset="0%"/><stop stop-color="#F28591" offset="68%"/><stop stop-color="#F0717F" offset="100%"/></linearGradient><linearGradient x1="49.995%" y1="114.478%" x2="49.995%" y2="-10.774%" id="linearGradient-9"><stop stop-color="#612889" offset="0%"/><stop stop-color="#4A2879" offset="58%"/><stop stop-color="#36286B" offset="100%"/></linearGradient><linearGradient x1="50.017%" y1="23.486%" x2="50.017%" y2="98.81%" id="linearGradient-10"><stop stop-color="#EF4848" offset="0%"/><stop stop-color="#E94647" offset="7%"/><stop stop-color="#D43D42" offset="39%"/><stop stop-color="#C7383F" offset="70%"/><stop stop-color="#C3363E" offset="100%"/></linearGradient><linearGradient x1="50.017%" y1="2.35%" x2="50.017%" y2="62.48%" id="linearGradient-11"><stop stop-color="#EF4848" offset="0%"/><stop stop-color="#C8383F" offset="90%"/><stop stop-color="#C3363E" offset="100%"/></linearGradient><linearGradient x1="50.023%" y1="5.545%" x2="50.023%" y2="90.167%" id="linearGradient-12"><stop stop-color="#7ACCC7" offset="0%"/><stop stop-color="#A1DBDF" offset="63%"/><stop stop-color="#BAE4EE" offset="100%"/></linearGradient><linearGradient x1="50.219%" y1="9.171%" x2="50.219%" y2="89.083%" id="linearGradient-13"><stop stop-color="#F7ACB6" offset="0%"/><stop stop-color="#F19DA7" offset="7%"/><stop stop-color="#E07882" offset="26%"/><stop stop-color="#D35B64" offset="45%"/><stop stop-color="#CA474F" offset="64%"/><stop stop-color="#C53A42" offset="83%"/><stop stop-color="#C3363E" offset="100%"/></linearGradient><linearGradient x1="50%" y1="-.337%" x2="50%" y2="98.316%" id="linearGradient-14"><stop stop-color="#FDB813" offset="1%"/><stop stop-color="#FDB914" offset="1%"/><stop stop-color="#FED93D" offset="12%"/><stop stop-color="#FFED56" offset="21%"/><stop stop-color="#FFF45F" offset="26%"/><stop stop-color="#FCD446" offset="45%"/><stop stop-color="#F89C1B" offset="75%"/><stop stop-color="#F9A11A" offset="84%"/><stop stop-color="#FBAF16" offset="95%"/><stop stop-color="#FDB813" offset="100%"/></linearGradient><linearGradient x1="50.07%" y1="98.186%" x2="50.07%" y2="10.206%" id="linearGradient-15"><stop stop-color="#EF4848" offset="0%"/><stop stop-color="#E94647" offset="7%"/><stop stop-color="#D43D42" offset="39%"/><stop stop-color="#C7383F" offset="70%"/><stop stop-color="#C3363E" offset="100%"/></linearGradient><linearGradient x1="49.93%" y1="98.186%" x2="49.93%" y2="10.206%" id="linearGradient-16"><stop stop-color="#EF4848" offset="0%"/><stop stop-color="#E94647" offset="7%"/><stop stop-color="#D43D42" offset="39%"/><stop stop-color="#C7383F" offset="70%"/><stop stop-color="#C3363E" offset="100%"/></linearGradient><linearGradient x1="50%" y1="-11.727%" x2="50%" y2="89.81%" id="linearGradient-18"><stop stop-color="#7ACCC7" offset="0%"/><stop stop-color="#A1DBDF" offset="63%"/><stop stop-color="#BAE4EE" offset="100%"/></linearGradient><linearGradient x1="50%" y1="1.731%" x2="50%" y2="89.103%" id="linearGradient-19"><stop stop-color="#FFF45F" offset="0%"/><stop stop-color="#FCCD41" offset="47%"/><stop stop-color="#F89C1B" offset="100%"/></linearGradient><linearGradient x1="49.99%" y1="1.731%" x2="49.99%" y2="82.564%" id="linearGradient-20"><stop stop-color="#F0717F" offset="0%"/><stop stop-color="#F05D64" offset="45%"/><stop stop-color="#EF4848" offset="100%"/></linearGradient><linearGradient x1="50.086%" y1="1.731%" x2="50.086%" y2="89.103%" id="linearGradient-21"><stop stop-color="#FFF45F" offset="0%"/><stop stop-color="#FCCD41" offset="47%"/><stop stop-color="#F89C1B" offset="100%"/></linearGradient><linearGradient x1="49.948%" y1="1.731%" x2="49.948%" y2="82.564%" id="linearGradient-22"><stop stop-color="#F0717F" offset="0%"/><stop stop-color="#F05D64" offset="45%"/><stop stop-color="#EF4848" offset="100%"/></linearGradient><linearGradient x1="50%" y1="-8.454%" x2="50%" y2="69.324%" id="linearGradient-23"><stop stop-color="#F7ACB6" offset="0%"/><stop stop-color="#F497A2" offset="21%"/><stop stop-color="#F2828F" offset="48%"/><stop stop-color="#F17583" offset="75%"/><stop stop-color="#F0717F" offset="100%"/></linearGradient><linearGradient x1="49.948%" y1="-12.56%" x2="49.948%" y2="77.053%" id="linearGradient-24"><stop stop-color="#FDB813" offset="0%"/><stop stop-color="#F89C1B" offset="100%"/></linearGradient><linearGradient x1="50.259%" y1="-8.454%" x2="50.259%" y2="69.324%" id="linearGradient-25"><stop stop-color="#F7ACB6" offset="0%"/><stop stop-color="#F497A2" offset="21%"/><stop stop-color="#F2828F" offset="48%"/><stop stop-color="#F17583" offset="75%"/><stop stop-color="#F0717F" offset="100%"/></linearGradient><linearGradient x1="49.948%" y1="-8.454%" x2="49.948%" y2="69.324%" id="linearGradient-26"><stop stop-color="#F7ACB6" offset="0%"/><stop stop-color="#F497A2" offset="21%"/><stop stop-color="#F2828F" offset="48%"/><stop stop-color="#F17583" offset="75%"/><stop stop-color="#F0717F" offset="100%"/></linearGradient><linearGradient x1="49.845%" y1="-12.56%" x2="49.845%" y2="77.053%" id="linearGradient-27"><stop stop-color="#FDB813" offset="0%"/><stop stop-color="#F89C1B" offset="100%"/></linearGradient><linearGradient x1="50.052%" y1="-8.454%" x2="50.052%" y2="69.324%" id="linearGradient-28"><stop stop-color="#F7ACB6" offset="0%"/><stop stop-color="#F497A2" offset="21%"/><stop stop-color="#F2828F" offset="48%"/><stop stop-color="#F17583" offset="75%"/><stop stop-color="#F0717F" offset="100%"/></linearGradient><linearGradient x1="50%" y1="26.452%" x2="50%" y2="100.484%" id="linearGradient-35"><stop stop-color="#F0717F" offset="0%"/><stop stop-color="#C3363E" offset="50%"/><stop stop-color="#EF4848" offset="100%"/></linearGradient><linearGradient x1="50%" y1="8.837%" x2="50%" y2="101.395%" id="linearGradient-36"><stop stop-color="#F0717F" offset="0%"/><stop stop-color="#C3363E" offset="100%"/></linearGradient><radialGradient cx="49.739%" cy="200.388%" fx="49.739%" fy="200.388%" r="168.408%" gradientTransform="matrix(.27273 0 0 1 .362 0)" id="radialGradient-8"><stop stop-color="#FFF45F" offset="0%"/><stop stop-color="#FFF25D" offset="33%"/><stop stop-color="#FEE957" offset="52%"/><stop stop-color="#FDDB4C" offset="67%"/><stop stop-color="#FBC73C" offset="81%"/><stop stop-color="#F9AE29" offset="93%"/><stop stop-color="#F89C1B" offset="100%"/></radialGradient><radialGradient cx="44.232%" cy="49.853%" fx="44.232%" fy="49.853%" r="556.457%" gradientTransform="matrix(.06383 0 0 1 .414 0)" id="radialGradient-17"><stop stop-color="#EF4848" offset="0%"/><stop stop-color="#E94647" offset="7%"/><stop stop-color="#D43D42" offset="39%"/><stop stop-color="#C7383F" offset="70%"/><stop stop-color="#C3363E" offset="100%"/></radialGradient><radialGradient cx="48.801%" cy="100.655%" fx="48.801%" fy="100.655%" r="83.759%" gradientTransform="matrix(.57143 0 0 1 .21 0)" id="radialGradient-29"><stop stop-color="#7CC362" offset="0%"/><stop stop-color="#80C564" offset="16%"/><stop stop-color="#8DC969" offset="33%"/><stop stop-color="#A3D172" offset="50%"/><stop stop-color="#C1DC7E" offset="68%"/><stop stop-color="#D6E487" offset="79%"/><stop stop-color="#D1E285" offset="83%"/><stop stop-color="#C4DD80" offset="88%"/><stop stop-color="#AED576" offset="92%"/><stop stop-color="#8FCA6A" offset="97%"/><stop stop-color="#7CC362" offset="100%"/></radialGradient><radialGradient cx="49.844%" cy="101.965%" fx="49.844%" fy="101.965%" r="89.416%" gradientTransform="matrix(.57143 0 0 1 .214 0)" id="radialGradient-30"><stop stop-color="#7CC362" offset="0%"/><stop stop-color="#80C564" offset="16%"/><stop stop-color="#8DC969" offset="33%"/><stop stop-color="#A3D172" offset="50%"/><stop stop-color="#C1DC7E" offset="68%"/><stop stop-color="#D6E487" offset="79%"/><stop stop-color="#D1E285" offset="83%"/><stop stop-color="#C4DD80" offset="88%"/><stop stop-color="#AED576" offset="92%"/><stop stop-color="#8FCA6A" offset="97%"/><stop stop-color="#7CC362" offset="100%"/></radialGradient><radialGradient cx="49.777%" cy="97.474%" fx="49.777%" fy="97.474%" r="94.205%" gradientTransform="matrix(.5 0 0 1 .249 0)" id="radialGradient-31"><stop stop-color="#7CC362" offset="0%"/><stop stop-color="#80C564" offset="16%"/><stop stop-color="#8DC969" offset="33%"/><stop stop-color="#A3D172" offset="50%"/><stop stop-color="#C1DC7E" offset="68%"/><stop stop-color="#D6E487" offset="79%"/><stop stop-color="#D1E285" offset="83%"/><stop stop-color="#C4DD80" offset="88%"/><stop stop-color="#AED576" offset="92%"/><stop stop-color="#8FCA6A" offset="97%"/><stop stop-color="#7CC362" offset="100%"/></radialGradient><radialGradient cx="49.406%" cy="101.337%" fx="49.406%" fy="101.337%" r="101.189%" gradientTransform="matrix(.5 0 0 1 .247 0)" id="radialGradient-32"><stop stop-color="#7CC362" offset="0%"/><stop stop-color="#80C564" offset="16%"/><stop stop-color="#8DC969" offset="33%"/><stop stop-color="#A3D172" offset="50%"/><stop stop-color="#C1DC7E" offset="68%"/><stop stop-color="#D6E487" offset="79%"/><stop stop-color="#D1E285" offset="83%"/><stop stop-color="#C4DD80" offset="88%"/><stop stop-color="#AED576" offset="92%"/><stop stop-color="#8FCA6A" offset="97%"/><stop stop-color="#7CC362" offset="100%"/></radialGradient><radialGradient cx="49.369%" cy="101.288%" fx="49.369%" fy="101.288%" r="84.324%" gradientTransform="matrix(.6 0 0 1 .197 0)" id="radialGradient-33"><stop stop-color="#7CC362" offset="0%"/><stop stop-color="#80C564" offset="16%"/><stop stop-color="#8DC969" offset="33%"/><stop stop-color="#A3D172" offset="50%"/><stop stop-color="#C1DC7E" offset="68%"/><stop stop-color="#D6E487" offset="79%"/><stop stop-color="#D1E285" offset="83%"/><stop stop-color="#C4DD80" offset="88%"/><stop stop-color="#AED576" offset="92%"/><stop stop-color="#8FCA6A" offset="97%"/><stop stop-color="#7CC362" offset="100%"/></radialGradient><radialGradient cx="49.729%" cy="101.897%" fx="49.729%" fy="101.897%" r="102.168%" gradientTransform="matrix(.5 0 0 1 .249 0)" id="radialGradient-34"><stop stop-color="#7CC362" offset="0%"/><stop stop-color="#80C564" offset="16%"/><stop stop-color="#8DC969" offset="33%"/><stop stop-color="#A3D172" offset="50%"/><stop stop-color="#C1DC7E" offset="68%"/><stop stop-color="#D6E487" offset="79%"/><stop stop-color="#D1E285" offset="83%"/><stop stop-color="#C4DD80" offset="88%"/><stop stop-color="#AED576" offset="92%"/><stop stop-color="#8FCA6A" offset="97%"/><stop stop-color="#7CC362" offset="100%"/></radialGradient><radialGradient cx="49.073%" cy="101.18%" fx="49.073%" fy="101.18%" r="117.622%" gradientTransform="matrix(.4 0 0 1 .294 0)" id="radialGradient-37"><stop stop-color="#7CC362" offset="0%"/><stop stop-color="#80C564" offset="16%"/><stop stop-color="#8DC969" offset="33%"/><stop stop-color="#A3D172" offset="50%"/><stop stop-color="#C1DC7E" offset="68%"/><stop stop-color="#D6E487" offset="79%"/><stop stop-color="#D1E285" offset="83%"/><stop stop-color="#C4DD80" offset="88%"/><stop stop-color="#AED576" offset="92%"/><stop stop-color="#8FCA6A" offset="97%"/><stop stop-color="#7CC362" offset="100%"/></radialGradient><radialGradient cx="50.168%" cy="103.493%" fx="50.168%" fy="103.493%" r="119.529%" gradientTransform="matrix(.4 0 0 1 .301 0)" id="radialGradient-38"><stop stop-color="#7CC362" offset="0%"/><stop stop-color="#80C564" offset="16%"/><stop stop-color="#8DC969" offset="33%"/><stop stop-color="#A3D172" offset="50%"/><stop stop-color="#C1DC7E" offset="68%"/><stop stop-color="#D6E487" offset="79%"/><stop stop-color="#D1E285" offset="83%"/><stop stop-color="#C4DD80" offset="88%"/><stop stop-color="#AED576" offset="92%"/><stop stop-color="#8FCA6A" offset="97%"/><stop stop-color="#7CC362" offset="100%"/></radialGradient></defs><g id="illustration_1_gh" stroke="none" stroke-width="1" fill="none" fill-rule="evenodd"><path id="bounding-box" fill-opacity="0" fill="#FFF" d="M0 0h100v100H0z"/><g id="restaurant" transform="translate(5 9)" fill-rule="nonzero"><path id="Rectangle" fill="url('#linearGradient-1')" d="M5.051 21.758h80.11v54.396H5.051z"/><path id="Rectangle" fill="url('#linearGradient-2')" d="M5.051 20.769h80.11v3.956H5.051z"/><path id="Rectangle" fill="url('#linearGradient-3')" d="M2.084 16.813h86.044v4.945H2.084z"/><path id="Rectangle" fill="url('#linearGradient-4')" d="M7.029 26.703h74.176v4.945H7.029z"/><path id="Rectangle" fill="url('#linearGradient-5')" d="M7.029 24.725h74.176v4.945H7.029z"/><path id="Rectangle" fill="url('#linearGradient-6')" d="M8.018 8.901h72.198v3.956H8.018z"/><path d="M15.93 15.824C22.196 5.964 33.005 0 44.61 0c11.607 0 22.415 5.963 28.681 15.824H15.93Z" id="Path" fill="url('#linearGradient-7')"/><path d="M45.106.764c11.171-.047 21.62 5.694 27.82 15.285H17.285C23.49 6.464 33.935.725 45.105.764Zm0-.764C33.21-.01 22.162 6.356 15.93 16.813H74.28C68.051 6.353 57.002-.013 45.106 0Z" id="Shape" fill="#F0717F"/><path d="m22.853 15.824.389-.599c4.606-7.06 12.593-11.269 21.365-11.269 8.773 0 16.76 4.21 21.366 11.269l.396.6H22.853Z" id="Path" fill="url('#radialGradient-8')"/><path d="M44.618 4.678c9.032 0 16.942 4.17 21.35 10.425h-42.7c4.409-6.255 12.326-10.425 21.35-10.425Zm0-.722c-9.01 0-17.223 4.011-21.959 10.743l-.795 1.125h45.494l-.743-1.125C61.872 7.967 53.665 3.956 44.648 3.956h-.03Z" id="Shape" fill="#F0717F"/><path id="Rectangle" fill="url('#linearGradient-9')" d="M5.051 12.857h79.121v4.945H5.051z"/><path d="M60.435 38.248v37.906h2.552V39.158c1.995-2.531 5.07-4.013 8.327-4.013 3.258 0 6.332 1.482 8.328 4.013v36.996h2.551V38.248c-6.013-7.48-15.744-7.48-21.758 0Z" id="Path" fill="url('#linearGradient-10')"/><path d="m82.193 38.105-10.875 3.433-10.883-3.433s3.967-5.468 10.883-5.468c6.917 0 10.875 5.468 10.875 5.468Z" id="Path" fill="url('#linearGradient-11')"/><path d="M62.413 76.154V39.572c2.015-2.503 5.118-3.968 8.407-3.968 3.288 0 6.392 1.465 8.406 3.968v36.582" id="Path" stroke="#BAE4EE" stroke-width=".75" fill="url('#linearGradient-12')"/><path d="M75.28 59.34a1.978 1.978 0 1 1-.018-3.955 1.978 1.978 0 0 1 .017 3.956Z" id="Path" fill="url('#linearGradient-13')"/><path d="M75.278 55.774a1.557 1.557 0 1 1 0 3.115 1.557 1.557 0 0 1 0-3.115Zm0-.39a1.978 1.978 0 1 0-.015 3.957 1.978 1.978 0 0 0 .015-3.956Z" id="Shape" fill="#F0717F"/><path id="Rectangle" fill="url('#linearGradient-14')" d="M.106 76.154h89.011v4.945H.106z"/><path id="Path" stroke="#EF4848" stroke-width=".5" fill="url('#linearGradient-15')" stroke-linejoin="round" d="M56.48 64.286v-20.77h-5.935v18.266"/><path id="Path" stroke="#EF4848" stroke-width=".5" fill="url('#linearGradient-16')" stroke-linejoin="round" d="M15.93 61.782V43.516H9.996v20.77"/><path id="Path" stroke="#EF4848" stroke-width=".5" fill="url('#radialGradient-17')" stroke-linejoin="round" d="M53.981 62.308H12.539l-2.543 2.967h46.483l-2.498-2.967"/><path id="Path" stroke="#BAE4EE" stroke-width=".5" fill="url('#linearGradient-18')" d="M53.512 43.516V61.32h-40.55V43.516"/><path id="Path" fill="#BAE4EE" d="m48.552 45.495-15.81 16.813h.974l14.851-15.836zM53.497 44.505 37.688 61.32h.823l15.001-15.885zM31.278 43.516 12.963 61.32h13.34l18.308-17.803z"/><path d="M7.029 44.505c0-6.557 11.296-11.868 25.22-11.868 13.923 0 25.22 5.326 25.22 11.868H7.028Z" id="Path" fill="url('#linearGradient-19')"/><path d="M15.93 44.505c0-6.557 7.97-11.868 17.798-11.868 9.83 0 17.806 5.326 17.806 11.868" id="Path" fill="url('#linearGradient-20')"/><path d="M21.864 44.505c0-6.557 4.87-11.868 10.875-11.868s10.883 5.326 10.883 11.868" id="Path" fill="url('#linearGradient-21')"/><path d="M29.776 44.505c0-6.557 1.55-11.868 3.458-11.868 1.908 0 3.465 5.326 3.465 11.868" id="Path" fill="url('#linearGradient-22')"/><path d="M7.029 44.505c0 1.642 1.555 2.968 3.461 2.968 1.907 0 3.462-1.326 3.462-2.968H7.029Z" id="Path" fill="url('#linearGradient-23')"/><path d="M14.94 44.505c0 1.642 1.55 2.968 3.459 2.968 1.908 0 3.465-1.326 3.465-2.968H14.94Z" id="Path" fill="url('#linearGradient-24')"/><path d="M21.864 44.505c0 1.642 1.55 2.968 3.458 2.968 1.908 0 3.465-1.326 3.465-2.968h-6.923Z" id="Path" fill="url('#linearGradient-25')"/><path d="M29.776 44.505c0 1.642 1.55 2.968 3.458 2.968 1.908 0 3.465-1.326 3.465-2.968h-6.923Z" id="Path" fill="url('#linearGradient-24')"/><path d="M36.699 44.505c0 1.642 1.55 2.968 3.458 2.968 1.908 0 3.465-1.326 3.465-2.968H36.7Z" id="Path" fill="url('#linearGradient-26')"/><path d="M43.622 44.505c0 1.642 1.55 2.968 3.465 2.968 1.916 0 3.458-1.326 3.458-2.968h-6.923Z" id="Path" fill="url('#linearGradient-27')"/><path d="M51.534 44.505c0 1.642 1.55 2.968 3.465 2.968 1.916 0 3.458-1.326 3.458-2.968h-6.923Z" id="Path" fill="url('#linearGradient-28')"/><path d="M26.809 72.198c.084-2.214 1.61-3.956 3.461-3.956 1.853 0 3.377 1.742 3.462 3.956" id="Path" fill="url('#radialGradient-29')"/><path d="M41.644 72.198c.085-2.214 1.61-3.956 3.462-3.956s3.377 1.742 3.461 3.956" id="Path" fill="url('#radialGradient-30')"/><path d="M30.765 72.198a4.945 4.945 0 0 1 9.89 0M7.029 72.198a4.945 4.945 0 0 1 9.89 0" id="Path" fill="url('#radialGradient-31')"/><path d="M46.59 72.198a4.945 4.945 0 0 1 9.89 0" id="Path" fill="url('#radialGradient-32')"/><path d="M17.911 72.198c-.07-2.093.857-4.061 2.414-5.132 1.558-1.07 3.498-1.07 5.055 0 1.558 1.07 2.484 3.04 2.414 5.132" id="Path" fill="url('#radialGradient-33')"/><path d="M14.94 72.198a2.967 2.967 0 1 1 5.935 0" id="Path" fill="url('#radialGradient-34')"/><path id="Rectangle" fill="url('#linearGradient-35')" d="M8.018 72.198H56.48v4.945H8.018z"/><path id="Rectangle" fill="url('#linearGradient-36')" d="M8.018 72.198H56.48v1.978H8.018z"/><path d="M24.83 72.198c.189-1.138 1.239-1.978 2.473-1.978 1.235 0 2.285.84 2.473 1.978" id="Path" fill="url('#radialGradient-37')"/><path d="M36.699 72.198c.175-1.135 1.23-1.978 2.473-1.978 1.243 0 2.297.843 2.472 1.978" id="Path" fill="url('#radialGradient-38')"/><path id="Path" fill="#BAE4EE" d="M77.82 38.571 62.414 54.846v4.495l16.813-17.828V39.93zM79.226 44.505l-16.813 17.55v1.242l16.813-17.769z"/></g></g></svg>