<svg width="149" height="30" fill="none" xmlns="http://www.w3.org/2000/svg"><path d="M147.336 1.378c.122 0 .201-.076.201-.204 0-.124-.079-.193-.201-.193h-.197v.397h.197Zm-.43-.569h.476c.234 0 .391.143.391.365a.319.319 0 0 1-.226.318V1.5s.013.012.042.066l.237.442h-.256l-.23-.464h-.201v.464h-.233V.809Zm.401 1.548a.927.927 0 0 0 .936-.944.927.927 0 0 0-.936-.944.923.923 0 0 0-.926.944c0 .53.404.944.926.944Zm0-2.104c.653 0 1.176.515 1.176 1.16 0 .645-.523 1.16-1.176 1.16a1.158 1.158 0 0 1-1.166-1.16c0-.645.519-1.16 1.166-1.16ZM141.457 20.4v.017c.037.82-.245 1.622-.754 2.278l.019.036.019-.018a2.281 2.281 0 0 1-1.903.766h-2.901v-6.014h2.92a2.282 2.282 0 0 1 1.903.765l-.019-.018c.503.622.757 1.398.716 2.187Zm-5.52-14.07h2.562c.64-.043 1.268.19 1.714.637l.037.037c.446.582.659 1.299.604 2.02.07.76-.173 1.538-.641 2.171v-.018a2.11 2.11 0 0 1-1.695.693h-2.581V6.33Zm11.511 14.033v.036a7.618 7.618 0 0 0-2.977-6.015l.037.019.037-.037c1.554-1.443 2.432-3.438 2.431-5.521v.108a8.406 8.406 0 0 0-2.185-5.94l.038.053c-1.6-1.727-3.895-2.698-6.293-2.66h-8.176a.498.498 0 0 0-.508.493v27.865c0 .274.225.492.508.492h8.515c2.582.036 5.049-1.039 6.707-2.953l-.019.019a8.885 8.885 0 0 0 1.885-5.96M60.17 20.745V.917a.487.487 0 0 0-.49-.438h-5.218c-.264 0-.49.183-.509.438v19.828a3.36 3.36 0 0 1-.715 2.26 2.372 2.372 0 0 1-3.24.146.716.716 0 0 1-.17-.165 3.347 3.347 0 0 1-.679-2.204V.917a.449.449 0 0 0-.49-.438h-5.237a.464.464 0 0 0-.508.411L42.913.9v19.846a9.023 9.023 0 0 0 2.201 6.557c1.688 1.633 4.003 2.514 6.39 2.428h.075c2.387.086 4.702-.795 6.39-2.428a9.018 9.018 0 0 0 2.2-6.557M103.049.479H97.92a.5.5 0 0 0-.509.488V11.76h-5.18V.97a.499.499 0 0 0-.504-.492h-5.092a.499.499 0 0 0-.508.489v27.795c0 .274.226.492.508.492h5.106a.5.5 0 0 0 .509-.489V17.591h5.18v11.172c0 .274.227.492.51.492h5.104a.499.499 0 0 0 .509-.488V.971a.498.498 0 0 0-.504-.492ZM76.294 20.4v.017c.038.82-.244 1.622-.753 2.278l.019.036.018-.018a2.28 2.28 0 0 1-1.902.766h-2.901v-6.014h2.92a2.28 2.28 0 0 1 1.902.765l-.019-.018a3.2 3.2 0 0 1 .716 2.187Zm-5.52-14.07v-.001h2.563a2.216 2.216 0 0 1 1.714.638l.037.037c.446.582.66 1.299.604 2.02.07.76-.173 1.538-.64 2.171v-.018a2.11 2.11 0 0 1-1.697.693h-2.58V6.33Zm11.55 14.033v.073c0-2.352-1.093-4.557-2.977-6.033l.037-.037a7.534 7.534 0 0 0 2.43-5.508 8.427 8.427 0 0 0-2.185-5.736v.018c-1.6-1.727-3.895-2.698-6.292-2.66h-8.14a.5.5 0 0 0-.508.487v27.797c0 .274.226.492.509.492h8.554c2.58.036 5.048-1.039 6.707-2.953l-.02.019a8.879 8.879 0 0 0 1.885-5.96M125.314 20.745V.917a.482.482 0 0 0-.471-.438h-5.257a.463.463 0 0 0-.507.412l-.001.007v19.847a3.366 3.366 0 0 1-.678 2.223 2.372 2.372 0 0 1-3.259.164.714.714 0 0 1-.17-.164 3.343 3.343 0 0 1-.678-2.205V.917c-.019-.255-.245-.438-.509-.438h-5.237c-.264 0-.49.183-.509.438V20.8c-.169 2.332.623 4.683 2.205 6.505l.056.055c3.674 3.19 9.269 3.153 12.886-.109l-.075.054a9.02 9.02 0 0 0 2.204-6.56M32.4 11.742h.02a2.667 2.667 0 0 1-2.035.802H27.88V6.329h2.486c.767-.034 1.51.26 2.034.803v-.019c.53.617.806 1.403.773 2.205v.037a3.332 3.332 0 0 1-.773 2.387Zm3.166 5.122.019-.019a8.25 8.25 0 0 0 1.431-1.22l-.019.036c1.56-1.748 2.38-4 2.299-6.306V9.3a8.822 8.822 0 0 0-2.393-6.178l.094.11C35.43 1.517 33.2.508 30.837.441h-8.572a.499.499 0 0 0-.508.489V28.764c0 .274.225.492.508.492h5.106a.5.5 0 0 0 .509-.488V18.468h1.884l3.22 10.497c.057.2.264.346.49.346H38.9a.533.533 0 0 0 .415-.2.451.451 0 0 0 0-.437l-3.75-11.81M15.614 2.448C13.92.812 11.601-.072 9.208.005h-.037c-2.394-.085-4.716.8-6.406 2.442l.057-.072A9.043 9.043 0 0 0 .505 8.917v11.846a9.023 9.023 0 0 0 2.201 6.557c1.688 1.633 4.003 2.514 6.39 2.428h.094c2.394.086 4.716-.8 6.405-2.443a9.019 9.019 0 0 0 2.204-6.56v-6.47a.528.528 0 0 0-.527-.493H9.736a.546.546 0 0 0-.546.493v4.847c.019.292.245.51.546.51h2.072v1.112a3.586 3.586 0 0 1-.716 2.334l.02-.02a2.214 2.214 0 0 1-1.866.803H9.21c-.716.054-1.413-.219-1.865-.766a3.438 3.438 0 0 1-.754-2.314V9.008A3.516 3.516 0 0 1 7.38 6.64a2.215 2.215 0 0 1 1.865-.802h.038c.716-.054 1.412.219 1.865.765l.038.037c.476.693.695 1.521.621 2.35v1.094c.02.255.245.438.509.438h5.106c.263 0 .489-.183.508-.438V8.972a8.937 8.937 0 0 0-2.336-6.524h.02" fill="#FF8000"/></svg>